<?xml version="1.0" encoding="UTF-8" standalone="no"?><!DOCTYPE svg PUBLIC "-//W3C//DTD SVG 1.1//EN" "http://www.w3.org/Graphics/SVG/1.1/DTD/svg11.dtd"><svg width="100%" height="100%" viewBox="0 0 375 334" version="1.1" xmlns="http://www.w3.org/2000/svg" xmlns:xlink="http://www.w3.org/1999/xlink" xml:space="preserve" xmlns:serif="http://www.serif.com/" style="fill-rule:evenodd;clip-rule:evenodd;stroke-linejoin:round;stroke-miterlimit:1.41421;"><g id="Player-Human" serif:id="Player Human"><g id="Hands"><path id="Paper" d="M296.327,151.044c-2.972,10.768 -7.2,21.149 -11.072,29.008c-4.82,9.799 -12.944,22.17 -20.794,34.139c-9.249,14.098 -18.811,28.667 -22.576,38.344c-1.532,3.913 -7.232,34.698 -10.631,53.09c-1.314,7.085 -13.491,77.359 -14.411,82.162c-0.72,3.417 -3.963,5.673 -7.389,5.009c-3.427,-0.658 -5.671,-3.969 -5.015,-7.391c0.913,-4.779 13.09,-75.026 14.395,-82.081c5.469,-29.474 9.484,-50.689 11.28,-55.368c4.245,-10.92 14.181,-26.06 23.788,-40.695c7.649,-11.644 15.552,-23.69 20.027,-32.785c11.701,-23.764 18.678,-54.38 9.524,-62.415c-1.17,-1.031 -1.757,-1.134 -1.763,-1.135c-2.552,0.867 -5.875,9.134 -10.168,24.593c-0.47,1.776 -0.914,3.383 -1.301,4.737c-0.073,0.242 -7.637,23.897 -18.54,25.237c-3.607,0.445 -6.975,-1.355 -8.998,-4.822c-3.757,-6.421 -1.442,-16.492 1.759,-30.439c2.148,-9.35 4.579,-19.939 4.461,-28.172c-0.041,-2.841 -0.035,-5.781 -0.029,-8.747c0.023,-10.716 0.066,-30.663 -4.72,-31.813c-1.399,-0.341 -2.078,-0.063 -2.556,0.244c-1.92,1.238 -3.192,4.824 -3.605,6.629c-0.402,5.064 -4.272,51.243 -9.963,71.079c-1.35,4.678 -10.248,13.305 -17.383,12.266c-3.69,-0.541 -7.617,-3.518 -7.563,-10.263c0.03,-3.954 -0.591,-10.794 -1.314,-18.71c-1.306,-14.279 -3.088,-33.833 -2.669,-53.532c0.398,-18.67 -3.939,-24.006 -5.818,-25.435c-1.913,-1.445 -3.92,-0.892 -4.142,-0.823c-0.557,0.168 -1.321,0.324 -1.906,0.332c-2.786,0.057 -3.886,0.886 -4.592,1.687c-1.823,2.071 -4.561,8.527 -2.445,28.507c1.899,17.922 6.982,76.849 -7.024,82.979c-2.979,1.3 -6.126,1.119 -8.853,-0.511c-7.145,-4.278 -9.632,-18.287 -11.329,-39.501l-0.119,-1.467c-1.162,-14.207 -12.567,-48.495 -18.885,-49.957c-2.204,-0.51 -4.097,0.107 -5.77,1.898c-3.128,3.336 -5.563,11.232 -2.157,22.554c1.19,3.97 3.018,9.427 5.128,15.734c7.025,20.994 16.646,49.739 17.738,66.835c0.542,8.384 0.2,17.309 -6.365,19.879c-4.629,1.821 -9.044,-0.931 -11.633,-4.108c-0.586,-0.699 -15.944,-18.981 -24.263,-30.468c-6.549,-9.045 -13.038,-14.039 -15.147,-14.137c0.044,0.104 -0.482,0.824 -1.032,2.814c-0.122,0.444 -0.249,0.953 -0.371,1.535c-5.136,24.993 34.14,58.786 49.707,69.691c0.751,0.529 1.381,1.214 1.843,2.009c4.868,8.398 16.621,100.742 14.356,121.785c-0.366,3.462 -3.485,5.982 -6.95,5.602c-3.467,-0.374 -5.975,-3.484 -5.601,-6.95c2.161,-20.149 -9.438,-104.34 -12.368,-113.16c-9.678,-7.06 -60.624,-46.156 -53.353,-81.519c2.107,-10.174 7.19,-13.33 11.101,-14.163c10.704,-2.306 22.165,10.971 28.041,19.084c5.435,7.507 14.292,18.395 19.521,24.725c-0.021,-0.563 -0.051,-1.167 -0.095,-1.815c-0.987,-15.456 -10.691,-44.447 -17.113,-63.636c-2.162,-6.453 -4.032,-12.046 -5.249,-16.109c-4.129,-13.755 -2.208,-27.099 5.038,-34.819c4.744,-5.058 11.238,-7.084 17.826,-5.561c19.998,4.629 28.576,60.67 28.625,61.227l0.123,1.501c0.957,12.009 2.086,19.284 3.127,23.678c1.917,-14.019 0.985,-44.912 -1.071,-64.305c-2.09,-19.697 -0.384,-31.476 5.528,-38.182c3.213,-3.646 7.564,-5.642 12.943,-5.932c2.535,-0.643 8.521,-1.468 14.383,2.712c7.854,5.6 11.63,17.738 11.239,36.076c-0.407,18.988 1.344,38.133 2.622,52.111c0.512,5.643 0.957,10.508 1.188,14.489c0.199,-0.22 0.364,-0.417 0.487,-0.599c0.032,-0.116 0.062,-0.225 0.094,-0.341c5.5,-19.928 9.274,-67.659 9.311,-68.147c0.277,-1.692 2.15,-11.184 9.233,-15.819c3.627,-2.366 7.928,-3.045 12.437,-1.964c14.485,3.48 14.442,24.141 14.397,44.12c-0.006,2.894 -0.013,5.767 0.027,8.542c0.144,9.754 -2.473,21.137 -4.78,31.177c-0.905,3.923 -2.051,8.906 -2.752,13.127c1.738,-3.28 3.37,-6.963 4.102,-9.473c0.365,-1.274 0.785,-2.796 1.229,-4.475c4.309,-15.874 8.924,-30.413 18.846,-33.419c3.173,-0.958 8.108,-1.089 13.619,3.746c11.09,9.729 9.736,29.681 4.55,48.47Z" style="fill-rule:nonzero;"/></g></g></svg>