<?xml version="1.0" encoding="UTF-8" standalone="no"?>
<!DOCTYPE svg PUBLIC "-//W3C//DTD SVG 1.1//EN" "http://www.w3.org/Graphics/SVG/1.1/DTD/svg11.dtd">
<svg width="100%" height="100%" viewBox="0 0 160 160" version="1.1" xmlns="http://www.w3.org/2000/svg" xmlns:xlink="http://www.w3.org/1999/xlink" xml:space="preserve" xmlns:serif="http://www.serif.com/" style="fill-rule:evenodd;clip-rule:evenodd;stroke-linejoin:round;stroke-miterlimit:1.41421;">
    <g transform="matrix(1,0,0,1,-295,-587)">
        <g id="Draw" transform="matrix(1.25,0,0,1.25,188.75,-166.75)">
            <circle cx="149" cy="667" r="64" style="fill:rgb(101,183,40);"/>
            <clipPath id="_clip1">
                <circle cx="149" cy="667" r="64"/>
            </clipPath>
            <g clip-path="url(#_clip1)">
                <g transform="matrix(1.82667,-0.489454,0.489454,1.82667,-715.998,-298.328)">
                    <path d="M289.563,610.939C289.563,613.798 288.776,616.001 287.202,617.548C285.628,619.095 283.415,619.868 280.563,619.868L275.02,619.868L275.02,602.736L280.95,602.736C283.7,602.736 285.823,603.439 287.319,604.845C288.815,606.251 289.563,608.282 289.563,610.939ZM284.759,611.103C284.759,609.532 284.448,608.368 283.827,607.611C283.206,606.853 282.262,606.474 280.997,606.474L279.649,606.474L279.649,616.072L280.68,616.072C282.087,616.072 283.118,615.663 283.774,614.847C284.43,614.03 284.759,612.782 284.759,611.103Z" style="fill:white;fill-rule:nonzero;"/>
                    <path d="M300.38,606.357C300.778,606.357 301.157,606.388 301.516,606.45L301.774,606.497L301.364,610.822C300.989,610.728 300.469,610.681 299.805,610.681C298.805,610.681 298.079,610.909 297.626,611.366C297.173,611.823 296.946,612.482 296.946,613.341L296.946,619.868L292.364,619.868L292.364,606.591L295.774,606.591L296.489,608.712L296.712,608.712C297.094,608.009 297.628,607.441 298.311,607.007C298.995,606.573 299.684,606.357 300.38,606.357Z" style="fill:white;fill-rule:nonzero;"/>
                    <path d="M311.805,619.868L310.926,618.111L310.833,618.111C310.216,618.876 309.587,619.4 308.946,619.681C308.305,619.962 307.477,620.103 306.462,620.103C305.212,620.103 304.227,619.728 303.509,618.978C302.79,618.228 302.43,617.173 302.43,615.814C302.43,614.4 302.923,613.347 303.907,612.655C304.891,611.964 306.317,611.575 308.184,611.489L310.399,611.419L310.399,611.232C310.399,610.138 309.86,609.591 308.782,609.591C307.813,609.591 306.583,609.919 305.091,610.575L303.766,607.552C305.313,606.755 307.266,606.357 309.626,606.357C311.329,606.357 312.647,606.779 313.581,607.622C314.514,608.466 314.981,609.646 314.981,611.161L314.981,619.868L311.805,619.868ZM308.407,616.868C308.962,616.868 309.436,616.693 309.831,616.341C310.225,615.989 310.423,615.532 310.423,614.97L310.423,613.939L309.368,613.986C307.86,614.04 307.106,614.595 307.106,615.65C307.106,616.462 307.54,616.868 308.407,616.868Z" style="fill:white;fill-rule:nonzero;"/>
                    <path d="M329.524,619.868L328.024,613.54L327.673,611.63L327.438,610.095L327.368,610.095C326.985,612.282 326.727,613.661 326.594,614.232L325.247,619.868L320.43,619.868L316.809,606.591L321.321,606.591L322.399,611.689C322.743,613.439 322.942,614.892 322.997,616.048L323.067,616.048C323.091,615.329 323.305,613.962 323.712,611.947L324.942,606.591L330.005,606.591L331.13,612.017C331.489,613.743 331.716,615.087 331.809,616.048L331.88,616.048C331.926,615.454 332.005,614.714 332.114,613.827C332.223,612.941 332.344,612.228 332.477,611.689L333.649,606.591L338.067,606.591L334.423,619.868L329.524,619.868Z" style="fill:white;fill-rule:nonzero;"/>
                    <path d="M343.786,613.822L339.919,613.822L339.321,602.736L344.384,602.736L343.786,613.822ZM339.368,617.923C339.368,617.212 339.579,616.659 340.001,616.265C340.423,615.87 341.036,615.673 341.841,615.673C342.637,615.673 343.241,615.87 343.651,616.265C344.061,616.659 344.266,617.212 344.266,617.923C344.266,618.626 344.053,619.175 343.628,619.57C343.202,619.964 342.606,620.161 341.841,620.161C341.067,620.161 340.462,619.964 340.024,619.57C339.587,619.175 339.368,618.626 339.368,617.923Z" style="fill:white;fill-rule:nonzero;"/>
                </g>
            </g>
        </g>
    </g>
</svg>
