<?xml version="1.0" encoding="UTF-8" standalone="no"?>
<!DOCTYPE svg PUBLIC "-//W3C//DTD SVG 1.1//EN" "http://www.w3.org/Graphics/SVG/1.1/DTD/svg11.dtd">
<svg width="100%" height="100%" viewBox="0 0 750 667" version="1.1" xmlns="http://www.w3.org/2000/svg" xmlns:xlink="http://www.w3.org/1999/xlink" xml:space="preserve" xmlns:serif="http://www.serif.com/" style="fill-rule:evenodd;clip-rule:evenodd;stroke-linejoin:round;stroke-miterlimit:1.41421;">
    <g transform="matrix(8.53184,6.15889,-6.4239,8.89895,225.913,-698.44)">
        <g id="Player-Human" serif:id="Player Human">
            <g id="Hands">
                <path id="Scisors" d="M81.87,98.61C81.499,98.61 81.142,98.403 80.97,98.047C77.934,91.797 74.315,85.669 69.224,81.874C67.119,81.309 55.455,77.898 56.256,71.953C56.349,71.268 56.727,70.734 57.32,70.449C57.682,70.275 58.121,70.211 58.629,70.236C55.59,67.951 52.21,65.377 50.525,63.989C48.587,62.393 45.386,59.363 45.734,57.006C45.886,55.975 46.423,55.219 47.246,54.879C48.604,54.319 50.48,54.95 52.98,56.813C54.184,57.71 55.654,58.855 57.136,60.011C58.558,61.119 60.267,62.451 61.642,63.471C61.023,62.457 60.27,61.218 59.512,59.805C58.997,58.843 58.464,57.88 57.946,56.943C55.698,52.879 54.314,50.304 54.204,48.648C54.106,47.188 54.921,45.344 56.405,44.912C57.405,44.621 58.911,44.856 60.421,47.619C61.106,48.873 61.926,50.279 62.794,51.767C64.535,54.751 66.468,58.064 67.764,60.956C68.219,60.46 68.82,59.99 69.584,59.746C70.564,59.432 71.607,59.539 72.688,60.06C73.34,59.241 74.508,58.11 76.051,58.001C77.393,57.902 78.633,58.589 79.752,60.023C82.733,63.844 85.686,70.448 85.162,77.639C86.226,79.019 88.932,82.553 93.663,88.615C94.003,89.051 93.926,89.678 93.49,90.018C93.053,90.358 92.426,90.281 92.087,89.845C86.667,82.9 83.342,78.552 83.342,78.552C83.188,78.353 83.115,78.103 83.138,77.852C83.75,71.088 80.976,64.842 78.176,61.252C77.49,60.374 76.803,59.952 76.196,59.994C75.134,60.065 74.142,61.381 73.85,61.882C73.711,62.12 73.479,62.292 73.209,62.355C72.941,62.416 72.656,62.365 72.428,62.212C71.575,61.64 70.826,61.451 70.199,61.647C69.271,61.938 68.657,63.055 68.499,63.461C68.349,63.845 67.978,64.1 67.566,64.1C67.562,64.1 67.559,64.1 67.556,64.1C67.14,64.095 66.77,63.837 66.626,63.447C65.491,60.358 63.14,56.328 61.065,52.772C60.19,51.271 59.363,49.854 58.664,48.575C57.829,47.047 57.184,46.765 56.964,46.83C56.588,46.939 56.15,47.775 56.199,48.513C56.285,49.808 58.018,52.942 59.695,55.972C60.217,56.917 60.755,57.888 61.275,58.858C62.047,60.299 62.825,61.571 63.449,62.591C64.681,64.607 65.191,65.441 64.943,66.217C64.839,66.543 64.598,66.807 64.284,66.942C63.444,67.301 62.804,66.964 55.906,61.587C54.435,60.441 52.979,59.306 51.784,58.415C49.059,56.384 48.107,56.686 48.009,56.727C47.859,56.789 47.759,56.981 47.712,57.298C47.578,58.205 49.334,60.418 51.796,62.444C55.16,65.216 65.781,73.078 65.888,73.157C66.317,73.474 66.421,74.073 66.124,74.516C65.827,74.959 65.235,75.095 64.777,74.817C61.978,73.133 58.833,71.906 58.184,72.252C57.734,75.953 66.725,79.158 69.914,79.987C70.038,80.019 70.154,80.075 70.257,80.15C76.011,84.397 79.827,91.117 82.767,97.172C83.008,97.668 82.801,98.267 82.304,98.508C82.165,98.578 82.016,98.61 81.87,98.61Z" style="fill-rule:nonzero;"/>
            </g>
        </g>
    </g>
</svg>
