<?xml version="1.0" encoding="UTF-8" standalone="no"?><!DOCTYPE svg PUBLIC "-//W3C//DTD SVG 1.1//EN" "http://www.w3.org/Graphics/SVG/1.1/DTD/svg11.dtd"><svg width="100%" height="100%" viewBox="0 0 375 334" version="1.1" xmlns="http://www.w3.org/2000/svg" xmlns:xlink="http://www.w3.org/1999/xlink" xml:space="preserve" xmlns:serif="http://www.serif.com/" style="fill-rule:evenodd;clip-rule:evenodd;stroke-linejoin:round;stroke-miterlimit:1.41421;"><g id="Player-Human" serif:id="Player Human"><g id="Hands"><path id="Rock" d="M152.916,338.452c2.803,-0.2 4.908,-2.648 4.688,-5.444c-3.38,-45.373 -8.108,-99.855 -8.158,-100.401c-0.059,-0.679 -0.25,-1.338 -0.572,-1.936c-18.762,-35.473 -19.448,-64.028 -18.476,-92.563c0.277,-8.171 3.164,-14.692 8.134,-18.373c3.468,-2.569 6.998,-3.041 9.226,-2.654c0.886,1.193 2.139,4.781 2.709,7.851c0.441,2.394 2.528,4.135 4.959,4.156c2.436,0.018 4.546,-1.703 5.022,-4.081c2.352,-11.763 7.059,-18.858 13.231,-19.977c4.348,-0.793 8.45,1.639 9.737,3.7c0.954,1.575 2.186,8.97 2.634,15.841c0.17,2.555 2.216,4.584 4.775,4.734c2.559,0.15 4.835,-1.632 5.297,-4.153c0.04,-0.215 4.346,-21.75 14.977,-20.137c10.765,1.634 10.32,12.973 10.238,14.233c-0.192,2.44 1.388,4.668 3.751,5.306c2.371,0.64 4.85,-0.521 5.902,-2.719c1.501,-3.134 7.122,-12.488 13.013,-14.403c1.733,-0.558 3.254,-0.393 4.938,0.535c6.195,3.408 4.538,13.087 2.738,19.189l-17.243,33.524c-1.282,2.496 -0.303,5.558 2.196,6.844c2.496,1.282 5.561,0.307 6.84,-2.194l13.722,-26.67c0.79,-0.509 1.489,-1.166 1.908,-2.082c0.237,-0.527 0.478,-1.094 0.709,-1.666c5.389,1.698 6.392,4.501 6.753,5.547c4.908,14.431 -23.211,50.639 -42.089,70.068c-0.535,0.555 -0.944,1.226 -1.186,1.958c-6.237,19.034 -6.258,97.637 -5.52,127.869c0.068,2.805 2.401,5.022 5.202,4.958c2.816,-0.062 5.027,-2.404 4.958,-5.202c-0.693,-28.484 -0.955,-105.56 4.666,-123.359c8.259,-8.623 51.761,-55.541 43.59,-79.559c-1.434,-4.212 -5.014,-9.333 -13.477,-11.98c1.882,-9.706 0.918,-20.773 -8.865,-26.148c-4.101,-2.257 -8.578,-2.712 -12.944,-1.31c-4.809,1.553 -8.872,5.13 -12.003,8.828c-2.646,-5.421 -7.596,-10.302 -16.266,-11.62c-8.867,-1.339 -15.271,3.636 -19.62,10.342c-0.298,-0.747 -0.619,-1.418 -0.968,-1.974c-3.346,-5.348 -11.353,-9.916 -20.184,-8.303c-4.6,0.844 -11.905,3.947 -17.088,14.668c-1.085,-1.092 -2.35,-1.92 -3.824,-2.317c-5.495,-1.471 -11.872,-0.21 -17.301,3.373c-0.391,0.258 -0.78,0.527 -1.156,0.805c-7.508,5.564 -11.861,14.866 -12.242,26.2c-1.013,29.719 -0.297,59.491 19.164,96.742c0.664,7.697 4.943,57.373 8.059,99.254c0.206,2.812 2.644,4.911 5.446,4.7Z" style="fill-rule:nonzero;"/></g></g></svg>