<?xml version="1.0" encoding="UTF-8" standalone="no"?>
<!DOCTYPE svg PUBLIC "-//W3C//DTD SVG 1.1//EN" "http://www.w3.org/Graphics/SVG/1.1/DTD/svg11.dtd">
<svg width="100%" height="100%" viewBox="0 0 750 667" version="1.1" xmlns="http://www.w3.org/2000/svg" xmlns:xlink="http://www.w3.org/1999/xlink" xml:space="preserve" xmlns:serif="http://www.serif.com/" style="fill-rule:evenodd;clip-rule:evenodd;stroke-linejoin:round;stroke-miterlimit:1.41421;">
    <g id="Player-CPU" serif:id="Player CPU">
        <g id="CPU-CHOOSING" serif:id="CPU CHOOSING">
            <g transform="matrix(20.615,0,0,20.615,-5815.39,-6044.35)">
                <path d="M297.901,314.027L297.901,313.019C297.901,312.254 298.058,311.607 298.37,311.08C298.683,310.553 299.237,310.039 300.034,309.539C300.667,309.14 301.122,308.781 301.4,308.461C301.677,308.14 301.816,307.773 301.816,307.359C301.816,307.031 301.667,306.771 301.37,306.58C301.073,306.389 300.687,306.293 300.21,306.293C299.03,306.293 297.651,306.711 296.073,307.547L294.444,304.359C296.39,303.25 298.421,302.695 300.538,302.695C302.28,302.695 303.648,303.078 304.64,303.844C305.632,304.609 306.128,305.652 306.128,306.973C306.128,307.918 305.907,308.736 305.466,309.428C305.025,310.119 304.319,310.773 303.351,311.39C302.53,311.922 302.017,312.31 301.81,312.556C301.603,312.803 301.499,313.094 301.499,313.43L301.499,314.027L297.901,314.027ZM297.398,318.129C297.398,317.41 297.607,316.855 298.025,316.465C298.442,316.074 299.058,315.879 299.87,315.879C300.651,315.879 301.251,316.076 301.669,316.471C302.087,316.865 302.296,317.418 302.296,318.129C302.296,318.84 302.079,319.39 301.646,319.781C301.212,320.172 300.62,320.367 299.87,320.367C299.097,320.367 298.491,320.174 298.054,319.787C297.616,319.4 297.398,318.848 297.398,318.129Z" style="fill:rgb(227,227,227);fill-rule:nonzero;"/>
            </g>
            <g transform="matrix(11.5217,4.75014,-4.75014,11.5217,-1366.68,-4587.56)">
                <path d="M297.831,315.351L297.831,314.719C297.831,313.805 297.972,313.053 298.253,312.463C298.534,311.873 299.058,311.25 299.823,310.594C300.886,309.695 301.556,309.019 301.833,308.566C302.11,308.113 302.249,307.566 302.249,306.926C302.249,306.129 301.993,305.514 301.482,305.08C300.97,304.646 300.234,304.43 299.273,304.43C298.655,304.43 298.054,304.502 297.468,304.646C296.882,304.791 296.21,305.055 295.452,305.437L294.761,303.855C296.237,303.082 297.78,302.695 299.39,302.695C300.882,302.695 302.042,303.062 302.87,303.797C303.698,304.531 304.112,305.566 304.112,306.902C304.112,307.473 304.036,307.974 303.884,308.408C303.732,308.842 303.507,309.252 303.21,309.639C302.913,310.025 302.273,310.648 301.288,311.508C300.499,312.18 299.978,312.738 299.724,313.183C299.47,313.629 299.343,314.223 299.343,314.965L299.343,315.351L297.831,315.351ZM297.257,318.832C297.257,317.769 297.726,317.238 298.663,317.238C299.116,317.238 299.466,317.375 299.712,317.648C299.958,317.922 300.081,318.316 300.081,318.832C300.081,319.332 299.956,319.721 299.706,319.998C299.456,320.275 299.109,320.414 298.663,320.414C298.257,320.414 297.921,320.291 297.655,320.045C297.39,319.799 297.257,319.394 297.257,318.832Z" style="fill:rgb(227,227,227);fill-rule:nonzero;"/>
            </g>
            <g transform="matrix(8.11645,-4.74983,4.74983,8.11645,-3762.11,-871.164)">
                <path d="M297.831,315.351L297.831,314.719C297.831,313.805 297.972,313.053 298.253,312.463C298.534,311.873 299.058,311.25 299.823,310.594C300.886,309.695 301.556,309.019 301.833,308.566C302.11,308.113 302.249,307.566 302.249,306.926C302.249,306.129 301.993,305.514 301.482,305.08C300.97,304.646 300.234,304.43 299.273,304.43C298.655,304.43 298.054,304.502 297.468,304.646C296.882,304.791 296.21,305.055 295.452,305.437L294.761,303.855C296.237,303.082 297.78,302.695 299.39,302.695C300.882,302.695 302.042,303.062 302.87,303.797C303.698,304.531 304.112,305.566 304.112,306.902C304.112,307.473 304.036,307.974 303.884,308.408C303.732,308.842 303.507,309.252 303.21,309.639C302.913,310.025 302.273,310.648 301.288,311.508C300.499,312.18 299.978,312.738 299.724,313.183C299.47,313.629 299.343,314.223 299.343,314.965L299.343,315.351L297.831,315.351ZM297.257,318.832C297.257,317.769 297.726,317.238 298.663,317.238C299.116,317.238 299.466,317.375 299.712,317.648C299.958,317.922 300.081,318.316 300.081,318.832C300.081,319.332 299.956,319.721 299.706,319.998C299.456,320.275 299.109,320.414 298.663,320.414C298.257,320.414 297.921,320.291 297.655,320.045C297.39,319.799 297.257,319.394 297.257,318.832Z" style="fill:rgb(227,227,227);fill-rule:nonzero;"/>
            </g>
            <g transform="matrix(5.77721,0.635284,-0.635284,5.77721,-1373.91,-1536.31)">
                <path d="M297.831,315.351L297.831,314.719C297.831,313.805 297.972,313.053 298.253,312.463C298.534,311.873 299.058,311.25 299.823,310.594C300.886,309.695 301.556,309.019 301.833,308.566C302.11,308.113 302.249,307.566 302.249,306.926C302.249,306.129 301.993,305.514 301.482,305.08C300.97,304.646 300.234,304.43 299.273,304.43C298.655,304.43 298.054,304.502 297.468,304.646C296.882,304.791 296.21,305.055 295.452,305.437L294.761,303.855C296.237,303.082 297.78,302.695 299.39,302.695C300.882,302.695 302.042,303.062 302.87,303.797C303.698,304.531 304.112,305.566 304.112,306.902C304.112,307.473 304.036,307.974 303.884,308.408C303.732,308.842 303.507,309.252 303.21,309.639C302.913,310.025 302.273,310.648 301.288,311.508C300.499,312.18 299.978,312.738 299.724,313.183C299.47,313.629 299.343,314.223 299.343,314.965L299.343,315.351L297.831,315.351ZM297.257,318.832C297.257,317.769 297.726,317.238 298.663,317.238C299.116,317.238 299.466,317.375 299.712,317.648C299.958,317.922 300.081,318.316 300.081,318.832C300.081,319.332 299.956,319.721 299.706,319.998C299.456,320.275 299.109,320.414 298.663,320.414C298.257,320.414 297.921,320.291 297.655,320.045C297.39,319.799 297.257,319.394 297.257,318.832Z" style="fill:rgb(227,227,227);fill-rule:nonzero;"/>
            </g>
        </g>
    </g>
</svg>
