<?xml version="1.0" encoding="UTF-8" standalone="no"?>
<!DOCTYPE svg PUBLIC "-//W3C//DTD SVG 1.1//EN" "http://www.w3.org/Graphics/SVG/1.1/DTD/svg11.dtd">
<svg width="100%" height="100%" viewBox="0 0 80 80" version="1.1" xmlns="http://www.w3.org/2000/svg" xmlns:xlink="http://www.w3.org/1999/xlink" xml:space="preserve" xmlns:serif="http://www.serif.com/" style="fill-rule:evenodd;clip-rule:evenodd;stroke-linejoin:round;stroke-miterlimit:1.41421;">
    <g transform="matrix(1,0,0,1,-40,-627)">
        <g id="Reload" transform="matrix(0.625,0,0,0.625,-13.125,250.125)">
            <circle cx="149" cy="667" r="64" style="fill:rgb(101,183,40);"/>
            <g id="Reload-Spinner" serif:id="Reload Spinner" transform="matrix(1,0,0,1,98.8601,611.844)">
                <path d="M50.1,18.11L49.6,18.11L49.6,12.88C49.599,10.687 47.793,8.882 45.6,8.882C44.691,8.882 43.809,9.192 43.1,9.76L27.39,22.32C26.441,23.079 25.887,24.23 25.887,25.445C25.887,26.66 26.441,27.811 27.39,28.57L43.1,41.14C43.809,41.708 44.691,42.018 45.6,42.018C47.794,42.018 49.6,40.212 49.6,38.018C49.6,38.012 49.6,38.006 49.6,38L49.6,32.78L50.1,32.78C50.102,32.78 50.105,32.78 50.107,32.78C63.273,32.78 74.107,43.614 74.107,56.78C74.107,69.946 63.273,80.78 50.107,80.78C37.777,80.78 27.351,71.278 26.21,59C26.019,56.947 24.271,55.361 22.21,55.37L15.54,55.37C15.536,55.37 15.532,55.37 15.529,55.37C13.334,55.37 11.529,57.176 11.529,59.37C11.529,59.47 11.532,59.57 11.54,59.67C13.049,79.729 29.975,95.43 50.091,95.43C71.299,95.43 88.751,77.978 88.751,56.77C88.751,35.565 71.305,18.115 50.1,18.11Z" style="fill:white;fill-rule:nonzero;"/>
            </g>
        </g>
    </g>
</svg>
